<?xml version="1.0" encoding="UTF-8"?> <svg xmlns="http://www.w3.org/2000/svg" width="800" height="800" viewBox="0 0 800 800" fill="none"><rect width="800" height="800" fill="url(#paint0_linear_192_53)"></rect><path opacity="0.6" d="M138.364 303.846V307.622H132.252V326.246H128.156V307.622H122.044V303.846H138.364ZM136.962 332.646V311.462H140.866V313.542H140.93C141.858 312.006 143.458 310.982 145.858 310.982C149.73 310.982 152.962 313.798 152.962 318.854C152.962 323.91 149.73 326.726 145.858 326.726C143.458 326.726 141.858 325.702 140.93 324.166H140.866V332.646H136.962ZM144.866 323.014C147.234 323.014 148.866 321.35 148.866 318.854C148.866 316.358 147.234 314.694 144.866 314.694C142.498 314.694 140.866 316.358 140.866 318.854C140.866 321.35 142.498 323.014 144.866 323.014ZM160.773 326.726C156.901 326.726 153.669 323.91 153.669 318.854C153.669 313.798 156.901 310.982 160.773 310.982C163.173 310.982 164.773 312.006 165.701 313.542H165.765V311.462H169.669V326.246H165.765V324.166H165.701C164.773 325.702 163.173 326.726 160.773 326.726ZM161.765 323.014C164.133 323.014 165.765 321.35 165.765 318.854C165.765 316.358 164.133 314.694 161.765 314.694C159.397 314.694 157.765 316.358 157.765 318.854C157.765 321.35 159.397 323.014 161.765 323.014ZM182.345 332.646V324.166H182.281C181.417 325.702 180.137 326.726 177.737 326.726C173.993 326.726 171.369 323.878 171.369 318.854C171.369 313.83 173.993 310.982 177.737 310.982C180.137 310.982 181.417 312.006 182.281 313.542H182.345V304.646H186.121V313.542H186.185C187.049 312.006 188.393 310.982 190.761 310.982C194.505 310.982 197.129 313.83 197.129 318.854C197.129 323.878 194.505 326.726 190.761 326.726C188.393 326.726 187.049 325.702 186.185 324.166H186.121V332.646H182.345ZM178.953 323.238C181.225 323.238 182.505 321.51 182.505 318.854C182.505 316.198 181.225 314.47 178.953 314.47C176.649 314.47 175.529 316.198 175.529 318.854C175.529 321.51 176.649 323.238 178.953 323.238ZM189.545 323.238C191.817 323.238 192.969 321.51 192.969 318.854C192.969 316.198 191.817 314.47 189.545 314.47C187.273 314.47 185.961 316.198 185.961 318.854C185.961 321.51 187.273 323.238 189.545 323.238ZM198.895 326.246V311.462H202.799V320.422H202.863L209.711 311.462H213.263V326.246H209.327V317.286H209.263L202.415 326.246H198.895ZM230.276 326.246H225.156L219.62 319.206V326.246H215.716V311.462H219.62V317.542L224.484 311.462H229.476L223.428 318.182L230.276 326.246Z" fill="#10090C"></path><path opacity="0.6" d="M76.9691 551.872C80.0277 551.872 82.0097 554.001 82.0097 557.255C82.0097 560.877 79.832 563.103 76.2595 563.103C73.5435 563.103 71.5126 561.88 70.5338 559.678L72.5648 558.43C73.4212 560.118 74.5712 560.852 76.2595 560.852C78.2905 560.852 79.5139 559.506 79.5139 557.304C79.5139 555.224 78.2905 553.928 76.3574 553.928C75.1829 553.928 74.0818 554.441 73.519 555.273H71.3902L72.2467 546.22H80.6884V548.52H74.1797L73.7148 552.949H73.7637C74.4978 552.288 75.7212 551.872 76.9691 551.872ZM88.5832 545.853C92.327 545.853 94.4068 548.936 94.4068 554.466C94.4068 559.996 92.327 563.103 88.5832 563.103C84.8395 563.103 82.7596 559.996 82.7596 554.466C82.7596 548.936 84.8395 545.853 88.5832 545.853ZM88.5832 548.104C86.5034 548.104 85.2555 550.477 85.2555 554.466C85.2555 558.454 86.5034 560.852 88.5832 560.852C90.6631 560.852 91.911 558.454 91.911 554.466C91.911 550.477 90.6631 548.104 88.5832 548.104ZM101.708 545.853C105.452 545.853 107.532 548.936 107.532 554.466C107.532 559.996 105.452 563.103 101.708 563.103C97.9647 563.103 95.8849 559.996 95.8849 554.466C95.8849 548.936 97.9647 545.853 101.708 545.853ZM101.708 548.104C99.6286 548.104 98.3807 550.477 98.3807 554.466C98.3807 558.454 99.6286 560.852 101.708 560.852C103.788 560.852 105.036 558.454 105.036 554.466C105.036 550.477 103.788 548.104 101.708 548.104Z" fill="#8E8E8E"></path><path opacity="0.6" d="M60.4471 464.22V480.736H58.0492V466.618H57.0215V464.22H60.4471ZM75.458 463.853C79.2017 463.853 81.2816 466.936 81.2816 472.466C81.2816 477.996 79.2017 481.103 75.458 481.103C71.7143 481.103 69.6344 477.996 69.6344 472.466C69.6344 466.936 71.7143 463.853 75.458 463.853ZM75.458 466.104C73.3781 466.104 72.1302 468.477 72.1302 472.466C72.1302 476.454 73.3781 478.852 75.458 478.852C77.5378 478.852 78.7858 476.454 78.7858 472.466C78.7858 468.477 77.5378 466.104 75.458 466.104ZM88.5832 463.853C92.327 463.853 94.4068 466.936 94.4068 472.466C94.4068 477.996 92.327 481.103 88.5832 481.103C84.8395 481.103 82.7596 477.996 82.7596 472.466C82.7596 466.936 84.8395 463.853 88.5832 463.853ZM88.5832 466.104C86.5034 466.104 85.2555 468.477 85.2555 472.466C85.2555 476.454 86.5034 478.852 88.5832 478.852C90.6631 478.852 91.911 476.454 91.911 472.466C91.911 468.477 90.6631 466.104 88.5832 466.104ZM101.708 463.853C105.452 463.853 107.532 466.936 107.532 472.466C107.532 477.996 105.452 481.103 101.708 481.103C97.9647 481.103 95.8849 477.996 95.8849 472.466C95.8849 466.936 97.9647 463.853 101.708 463.853ZM101.708 466.104C99.6286 466.104 98.3807 468.477 98.3807 472.466C98.3807 476.454 99.6286 478.852 101.708 478.852C103.788 478.852 105.036 476.454 105.036 472.466C105.036 468.477 103.788 466.104 101.708 466.104Z" fill="#8E8E8E"></path><path opacity="0.6" d="M61.7136 380.898V397.414H59.3156V383.296H58.288V380.898H61.7136ZM76.9691 386.55C80.0277 386.55 82.0097 388.679 82.0097 391.933C82.0097 395.554 79.832 397.781 76.2595 397.781C73.5435 397.781 71.5126 396.558 70.5338 394.355L72.5647 393.108C73.4212 394.796 74.5712 395.53 76.2595 395.53C78.2905 395.53 79.5139 394.184 79.5139 391.982C79.5139 389.902 78.2905 388.605 76.3574 388.605C75.1829 388.605 74.0818 389.119 73.519 389.951H71.3902L72.2467 380.898H80.6884V383.198H74.1797L73.7148 387.627H73.7637C74.4978 386.966 75.7212 386.55 76.9691 386.55ZM88.5832 380.531C92.327 380.531 94.4068 383.614 94.4068 389.144C94.4068 394.674 92.327 397.781 88.5832 397.781C84.8395 397.781 82.7596 394.674 82.7596 389.144C82.7596 383.614 84.8395 380.531 88.5832 380.531ZM88.5832 382.782C86.5034 382.782 85.2555 385.155 85.2555 389.144C85.2555 393.132 86.5034 395.53 88.5832 395.53C90.6631 395.53 91.911 393.132 91.911 389.144C91.911 385.155 90.6631 382.782 88.5832 382.782ZM101.708 380.531C105.452 380.531 107.532 383.614 107.532 389.144C107.532 394.674 105.452 397.781 101.708 397.781C97.9647 397.781 95.8849 394.674 95.8849 389.144C95.8849 383.614 97.9647 380.531 101.708 380.531ZM101.708 382.782C99.6286 382.782 98.3807 385.155 98.3807 389.144C98.3807 393.132 99.6286 395.53 101.708 395.53C103.788 395.53 105.036 393.132 105.036 389.144C105.036 385.155 103.788 382.782 101.708 382.782Z" fill="#8E8E8E"></path><path opacity="0.6" d="M101.349 617.97C105.093 617.97 107.173 621.053 107.173 626.583C107.173 632.113 105.093 635.221 101.349 635.221C97.6053 635.221 95.5255 632.113 95.5255 626.583C95.5255 621.053 97.6053 617.97 101.349 617.97ZM101.349 620.221C99.2692 620.221 98.0213 622.595 98.0213 626.583C98.0213 630.571 99.2692 632.969 101.349 632.969C103.429 632.969 104.677 630.571 104.677 626.583C104.677 622.595 103.429 620.221 101.349 620.221Z" fill="#8E8E8E"></path><path opacity="0.6" d="M135.281 646.546L139.441 663.674H136.725L133.887 651.439H133.838L129.996 661.056H128.088L124.246 651.439H124.197L121.359 663.674H118.643L122.802 646.546H124.882L129.017 657.067H129.066L133.202 646.546H135.281ZM145.078 664.041C142.092 664.041 139.572 661.79 139.572 658.022C139.572 654.253 142.092 652.002 145.078 652.002C146.937 652.002 148.185 652.81 148.895 654.033H148.944V652.369H151.342V663.674H148.944V662.01H148.895C148.185 663.233 146.937 664.041 145.078 664.041ZM145.591 661.692C147.696 661.692 149.066 660.175 149.066 658.022C149.066 655.868 147.696 654.351 145.591 654.351C143.487 654.351 142.117 655.868 142.117 658.022C142.117 660.175 143.487 661.692 145.591 661.692ZM153.551 668.568V652.369H155.949V654.033H155.998C156.707 652.81 157.955 652.002 159.815 652.002C162.8 652.002 165.32 654.253 165.32 658.022C165.32 661.79 162.8 664.041 159.815 664.041C157.955 664.041 156.707 663.233 155.998 662.01H155.949V668.568H153.551ZM159.301 661.692C161.405 661.692 162.776 660.175 162.776 658.022C162.776 655.868 161.405 654.351 159.301 654.351C157.197 654.351 155.826 655.868 155.826 658.022C155.826 660.175 157.197 661.692 159.301 661.692ZM172.424 663.674V661.912L178.126 655.452C179.716 653.666 180.279 652.638 180.279 651.513C180.279 649.996 179.276 649.041 177.685 649.041C175.997 649.041 174.92 650.069 174.871 651.758H172.473C172.547 648.699 174.578 646.79 177.783 646.79C180.891 646.79 182.775 648.528 182.775 651.39C182.775 653.103 182.041 654.571 180.132 656.7L175.923 661.374H182.75V663.674H172.424ZM189.236 646.79C192.294 646.79 194.301 648.479 194.301 651.023C194.301 652.956 193.199 654.4 191.34 654.841V654.89C193.615 655.159 194.888 656.651 194.888 659.074C194.888 662.157 192.832 664.041 189.431 664.041C186.03 664.041 183.975 662.255 183.877 659.245H186.275C186.397 660.86 187.572 661.79 189.431 661.79C191.364 661.79 192.368 660.811 192.368 658.927C192.368 656.896 191.218 656.064 188.477 656.113H187.694V653.96H188.477C190.679 653.96 191.805 653.103 191.805 651.439C191.805 649.898 190.875 649.041 189.187 649.041C187.474 649.041 186.471 649.873 186.422 651.366H184.024C184.122 648.552 186.128 646.79 189.236 646.79Z" fill="#8E8E8E"></path><path opacity="0.6" d="M683.668 646.546H689.76V663.674H687.216V656.553H685.429L680.438 663.674H677.232L682.42 656.456C680.022 656.015 678.431 654.18 678.431 651.586C678.431 648.43 680.658 646.546 683.668 646.546ZM684.084 654.155H687.216V648.944H684.084C682.028 648.944 681.172 650.069 681.172 651.586C681.172 653.054 682.028 654.155 684.084 654.155ZM700.345 652.369H702.743V663.674H700.345V658.927H694.594V663.674H692.197V652.369H694.594V656.676H700.345V652.369ZM712.427 657.777C713.919 657.973 714.874 658.805 714.874 660.493C714.874 662.72 712.867 663.674 710.812 663.674H704.939V652.369H711.008C713.039 652.369 714.531 653.372 714.531 655.208C714.531 656.553 713.871 657.434 712.427 657.752V657.777ZM710.469 654.327H707.337V656.871H710.494C711.448 656.871 712.035 656.431 712.035 655.55C712.035 654.792 711.473 654.327 710.469 654.327ZM710.592 661.716C711.668 661.716 712.402 661.227 712.402 660.273C712.402 659.245 711.791 658.78 710.812 658.78H707.337V661.716H710.592ZM722.092 663.674V661.912L727.794 655.452C729.384 653.666 729.947 652.638 729.947 651.513C729.947 649.996 728.944 649.041 727.353 649.041C725.665 649.041 724.588 650.069 724.539 651.758H722.141C722.215 648.699 724.246 646.79 727.451 646.79C730.559 646.79 732.443 648.528 732.443 651.39C732.443 653.103 731.709 654.571 729.8 656.7L725.591 661.374H732.418V663.674H722.092ZM744.672 658.462V660.762H742.934V663.674H740.585V660.762H732.56V658.756L740.659 647.157H742.934V658.462H744.672ZM735.153 658.462H740.585V650.803H740.487L735.153 658.462Z" fill="#8E8E8E"></path><rect x="121.652" y="351.179" width="622.867" height="283.023" stroke="#E6E6E6" stroke-width="2.44688"></rect><line x1="246.714" y1="349.955" x2="246.714" y2="635.425" stroke="#E6E6E6" stroke-width="2.44688"></line><line x1="369.309" y1="349.955" x2="369.309" y2="635.425" stroke="#E6E6E6" stroke-width="2.44688"></line><line x1="494.371" y1="349.955" x2="494.371" y2="635.425" stroke="#E6E6E6" stroke-width="2.44688"></line><line x1="619.433" y1="349.955" x2="619.433" y2="635.425" stroke="#E6E6E6" stroke-width="2.44688"></line><line x1="120.429" y1="389.513" x2="745.743" y2="389.513" stroke="#E6E6E6" stroke-width="2.44688"></line><line x1="120.429" y1="430.513" x2="745.743" y2="430.513" stroke="#E6E6E6" stroke-width="2.44688"></line><line x1="120.429" y1="471.513" x2="745.743" y2="471.513" stroke="#E6E6E6" stroke-width="2.44688"></line><line x1="120.429" y1="512.513" x2="745.743" y2="512.513" stroke="#E6E6E6" stroke-width="2.44688"></line><line x1="120.429" y1="553.513" x2="745.743" y2="553.513" stroke="#E6E6E6" stroke-width="2.44688"></line><line x1="120.429" y1="594.513" x2="745.743" y2="594.513" stroke="#E6E6E6" stroke-width="2.44688"></line><circle cx="189.168" cy="616.928" r="7.35246" fill="#4CB944"></circle><circle cx="246.741" cy="605.501" r="7.35246" fill="#4CB944"></circle><circle cx="369.319" cy="605.501" r="7.35246" fill="#4CB944"></circle><circle cx="431.85" cy="572.501" r="7.35246" fill="#4CB944"></circle><circle cx="494.148" cy="562.736" r="7.35246" fill="#4CB944"></circle><circle cx="555.679" cy="540.736" r="7.35246" fill="#4CB944"></circle><circle cx="634.241" cy="500.589" r="7.35246" fill="#4CB944"></circle><circle cx="676.743" cy="392.647" r="7.35246" fill="#4CB944"></circle><circle cx="745.743" cy="349.955" r="7.35246" fill="#4CB944"></circle><circle cx="304.313" cy="601.501" r="7.35246" fill="#4CB944"></circle><circle opacity="0.3" cx="121.788" cy="609.575" r="13.8388" fill="#4CB944"></circle><circle opacity="0.3" cx="745.743" cy="349.955" r="13.8388" fill="#4CB944"></circle><circle cx="121.788" cy="609.575" r="7.35246" fill="#4CB944"></circle><rect x="76.8955" y="166.042" width="334.232" height="78.3843" rx="10" fill="#3AAF61"></rect><path d="M113.09 223.234V188.312H120.449V203.711H120.918L133.48 188.312H142.316L129.379 203.945L142.48 223.234H133.645L124.082 208.891L120.449 213.32V223.234H113.09ZM173.84 188.312V223.234H167.465L152.301 201.273H151.996V223.234H144.637V188.312H151.105L166.176 210.273H166.48V188.312H173.84ZM178.34 223.234V188.312H192.098C194.738 188.312 196.988 188.82 198.848 189.836C200.723 190.836 202.152 192.227 203.137 194.008C204.137 195.789 204.637 197.844 204.637 200.172C204.637 202.484 204.137 204.523 203.137 206.289C202.137 208.055 200.684 209.438 198.777 210.438C196.887 211.422 194.598 211.914 191.91 211.914H183.145V206.008H190.715C192.137 206.008 193.309 205.758 194.23 205.258C195.168 204.758 195.863 204.07 196.316 203.195C196.785 202.32 197.02 201.312 197.02 200.172C197.02 199 196.785 197.984 196.316 197.125C195.863 196.25 195.168 195.57 194.23 195.086C193.293 194.602 192.113 194.359 190.691 194.359H185.699V223.234H178.34ZM223.152 206.031V211.797H207.215V206.031H223.152ZM243.613 223.703C240.52 223.703 237.738 223 235.27 221.594C232.801 220.188 230.848 218.148 229.41 215.477C227.973 212.805 227.254 209.578 227.254 205.797C227.254 201.984 227.973 198.742 229.41 196.07C230.848 193.383 232.801 191.344 235.27 189.953C237.738 188.547 240.52 187.844 243.613 187.844C246.707 187.844 249.488 188.547 251.957 189.953C254.426 191.344 256.371 193.383 257.793 196.07C259.23 198.742 259.949 201.984 259.949 205.797C259.949 209.594 259.23 212.828 257.793 215.5C256.371 218.172 254.426 220.211 251.957 221.617C249.488 223.008 246.707 223.703 243.613 223.703ZM243.613 217.188C245.41 217.188 246.973 216.75 248.301 215.875C249.629 215 250.652 213.719 251.371 212.031C252.105 210.328 252.473 208.25 252.473 205.797C252.473 203.328 252.105 201.242 251.371 199.539C250.652 197.836 249.629 196.547 248.301 195.672C246.973 194.797 245.41 194.359 243.613 194.359C241.832 194.359 240.277 194.797 238.949 195.672C237.621 196.547 236.582 197.836 235.832 199.539C235.098 201.242 234.73 203.328 234.73 205.797C234.73 208.25 235.098 210.328 235.832 212.031C236.582 213.719 237.621 215 238.949 215.875C240.277 216.75 241.832 217.188 243.613 217.188ZM271.199 188.312V223.234H263.84V188.312H271.199ZM275.699 223.234V188.312H283.059V217.141H298.035V223.234H275.699ZM306.449 223.68C305.293 223.68 304.316 223.289 303.52 222.508C302.723 221.727 302.324 220.758 302.324 219.602C302.324 218.445 302.723 217.477 303.52 216.695C304.316 215.914 305.293 215.523 306.449 215.523C307.605 215.523 308.582 215.914 309.379 216.695C310.176 217.477 310.574 218.445 310.574 219.602C310.574 220.758 310.176 221.727 309.379 222.508C308.582 223.289 307.605 223.68 306.449 223.68ZM316.012 223.234V188.312H329.77C332.41 188.312 334.66 188.781 336.52 189.719C338.395 190.656 339.824 191.984 340.809 193.703C341.809 195.406 342.309 197.414 342.309 199.727C342.309 202.039 341.809 204.031 340.809 205.703C339.809 207.375 338.355 208.656 336.449 209.547C334.559 210.422 332.27 210.859 329.582 210.859H320.371V204.93H328.387C329.809 204.93 330.98 204.734 331.902 204.344C332.84 203.953 333.535 203.375 333.988 202.609C334.457 201.844 334.691 200.883 334.691 199.727C334.691 198.555 334.457 197.578 333.988 196.797C333.535 196 332.84 195.398 331.902 194.992C330.965 194.57 329.785 194.359 328.363 194.359H323.371V223.234H316.012ZM335.395 223.234L326.887 207.344H334.855L343.551 223.234H335.395ZM367.527 188.312H374.91V210.977C374.91 213.523 374.301 215.758 373.082 217.68C371.879 219.586 370.191 221.07 368.02 222.133C365.848 223.195 363.316 223.727 360.426 223.727C357.535 223.727 355.004 223.195 352.832 222.133C350.66 221.07 348.973 219.586 347.77 217.68C346.566 215.758 345.965 213.523 345.965 210.977V188.312H353.324V210.367C353.324 211.695 353.621 212.883 354.215 213.93C354.809 214.961 355.637 215.773 356.699 216.367C357.762 216.945 359.004 217.234 360.426 217.234C361.863 217.234 363.113 216.945 364.176 216.367C365.238 215.773 366.059 214.961 366.637 213.93C367.23 212.883 367.527 211.695 367.527 210.367V188.312Z" fill="white"></path><path d="M121.628 609.311L148.935 613.941C175.426 618.434 202.576 617.122 228.511 610.097C240.727 606.788 253.251 604.736 265.885 603.975L289.473 602.554C299.683 601.939 309.929 602.685 319.941 604.772L321.96 605.193C352.304 611.519 383.91 604.824 409.083 586.739C424.104 575.947 441.59 569.094 459.944 566.806L475.475 564.87C488.033 563.304 500.379 560.358 512.291 556.084L555.367 540.63L581.749 534.108C622.175 524.114 651.587 489.253 654.634 447.722C657.132 413.691 677.462 383.526 708.07 368.44L745.579 349.952" stroke="#4CB944" stroke-width="5"></path><defs><linearGradient id="paint0_linear_192_53" x1="400" y1="0" x2="400" y2="1020.92" gradientUnits="userSpaceOnUse"><stop offset="0.75" stop-color="white"></stop><stop offset="1" stop-color="#3AAF61"></stop></linearGradient></defs></svg> 