<?xml version="1.0" encoding="UTF-8"?> <svg xmlns="http://www.w3.org/2000/svg" width="800" height="800" viewBox="0 0 800 800" fill="none"><rect width="800" height="800" fill="url(#paint0_linear_190_109)"></rect><path opacity="0.6" d="M62.1989 361.892V364.192H60.4617V367.104H58.1126V364.192H50.0869V362.186L58.1861 350.588H60.4617V361.892H62.1989ZM52.6806 361.892H58.1126V354.233H58.0148L52.6806 361.892ZM75.6098 356.24C78.6684 356.24 80.6503 358.369 80.6503 361.623C80.6503 365.244 78.4726 367.471 74.9002 367.471C72.1841 367.471 70.1532 366.248 69.1745 364.045L71.2054 362.797C72.0618 364.486 73.2118 365.22 74.9002 365.22C76.9311 365.22 78.1545 363.874 78.1545 361.672C78.1545 359.592 76.9311 358.295 74.998 358.295C73.8235 358.295 72.7224 358.809 72.1597 359.641H70.0309L70.8873 350.588H79.329V352.888H72.8203L72.3554 357.316H72.4043C73.1384 356.656 74.3619 356.24 75.6098 356.24ZM87.2238 350.221C90.9676 350.221 93.0474 353.304 93.0474 358.834C93.0474 364.363 90.9676 367.471 87.2238 367.471C83.4801 367.471 81.4003 364.363 81.4003 358.834C81.4003 353.304 83.4801 350.221 87.2238 350.221ZM87.2238 352.472C85.144 352.472 83.8961 354.845 83.8961 358.834C83.8961 362.822 85.144 365.22 87.2238 365.22C89.3037 365.22 90.5516 362.822 90.5516 358.834C90.5516 354.845 89.3037 352.472 87.2238 352.472ZM100.349 350.221C104.093 350.221 106.173 353.304 106.173 358.834C106.173 364.363 104.093 367.471 100.349 367.471C96.6053 367.471 94.5255 364.363 94.5255 358.834C94.5255 353.304 96.6053 350.221 100.349 350.221ZM100.349 352.472C98.2692 352.472 97.0213 354.845 97.0213 358.834C97.0213 362.822 98.2692 365.22 100.349 365.22C102.429 365.22 103.677 362.822 103.677 358.834C103.677 354.845 102.429 352.472 100.349 352.472Z" fill="#8E8E8E"></path><path opacity="0.6" d="M138.364 303.846V307.622H132.252V326.246H128.156V307.622H122.044V303.846H138.364ZM136.962 332.646V311.462H140.866V313.542H140.93C141.858 312.006 143.458 310.982 145.858 310.982C149.73 310.982 152.962 313.798 152.962 318.854C152.962 323.91 149.73 326.726 145.858 326.726C143.458 326.726 141.858 325.702 140.93 324.166H140.866V332.646H136.962ZM144.866 323.014C147.234 323.014 148.866 321.35 148.866 318.854C148.866 316.358 147.234 314.694 144.866 314.694C142.498 314.694 140.866 316.358 140.866 318.854C140.866 321.35 142.498 323.014 144.866 323.014ZM160.773 326.726C156.901 326.726 153.669 323.91 153.669 318.854C153.669 313.798 156.901 310.982 160.773 310.982C163.173 310.982 164.773 312.006 165.701 313.542H165.765V311.462H169.669V326.246H165.765V324.166H165.701C164.773 325.702 163.173 326.726 160.773 326.726ZM161.765 323.014C164.133 323.014 165.765 321.35 165.765 318.854C165.765 316.358 164.133 314.694 161.765 314.694C159.397 314.694 157.765 316.358 157.765 318.854C157.765 321.35 159.397 323.014 161.765 323.014ZM182.345 332.646V324.166H182.281C181.417 325.702 180.137 326.726 177.737 326.726C173.993 326.726 171.369 323.878 171.369 318.854C171.369 313.83 173.993 310.982 177.737 310.982C180.137 310.982 181.417 312.006 182.281 313.542H182.345V304.646H186.121V313.542H186.185C187.049 312.006 188.393 310.982 190.761 310.982C194.505 310.982 197.129 313.83 197.129 318.854C197.129 323.878 194.505 326.726 190.761 326.726C188.393 326.726 187.049 325.702 186.185 324.166H186.121V332.646H182.345ZM178.953 323.238C181.225 323.238 182.505 321.51 182.505 318.854C182.505 316.198 181.225 314.47 178.953 314.47C176.649 314.47 175.529 316.198 175.529 318.854C175.529 321.51 176.649 323.238 178.953 323.238ZM189.545 323.238C191.817 323.238 192.969 321.51 192.969 318.854C192.969 316.198 191.817 314.47 189.545 314.47C187.273 314.47 185.961 316.198 185.961 318.854C185.961 321.51 187.273 323.238 189.545 323.238ZM198.895 326.246V311.462H202.799V320.422H202.863L209.711 311.462H213.263V326.246H209.327V317.286H209.263L202.415 326.246H198.895ZM230.276 326.246H225.156L219.62 319.206V326.246H215.716V311.462H219.62V317.542L224.484 311.462H229.476L223.428 318.182L230.276 326.246Z" fill="#10090C"></path><path opacity="0.6" d="M60.5731 446.776V449.076H58.8358V451.988H56.4868V449.076H48.461V447.07L56.5602 435.472H58.8358V446.776H60.5731ZM51.0547 446.776H56.4868V439.118H56.3889L51.0547 446.776ZM73.7392 435.105C77.483 435.105 79.5628 438.188 79.5628 443.718C79.5628 449.248 77.483 452.355 73.7392 452.355C69.9955 452.355 67.9157 449.248 67.9157 443.718C67.9157 438.188 69.9955 435.105 73.7392 435.105ZM73.7392 437.356C71.6594 437.356 70.4115 439.729 70.4115 443.718C70.4115 447.706 71.6594 450.104 73.7392 450.104C75.8191 450.104 77.067 447.706 77.067 443.718C77.067 439.729 75.8191 437.356 73.7392 437.356ZM86.8645 435.105C90.6082 435.105 92.6881 438.188 92.6881 443.718C92.6881 449.248 90.6082 452.355 86.8645 452.355C83.1207 452.355 81.0409 449.248 81.0409 443.718C81.0409 438.188 83.1207 435.105 86.8645 435.105ZM86.8645 437.356C84.7846 437.356 83.5367 439.729 83.5367 443.718C83.5367 447.706 84.7846 450.104 86.8645 450.104C88.9443 450.104 90.1922 447.706 90.1922 443.718C90.1922 439.729 88.9443 437.356 86.8645 437.356ZM99.9897 435.105C103.733 435.105 105.813 438.188 105.813 443.718C105.813 449.248 103.733 452.355 99.9897 452.355C96.246 452.355 94.1661 449.248 94.1661 443.718C94.1661 438.188 96.246 435.105 99.9897 435.105ZM99.9897 437.356C97.9099 437.356 96.6619 439.729 96.6619 443.718C96.6619 447.706 97.9099 450.104 99.9897 450.104C102.07 450.104 103.317 447.706 103.317 443.718C103.317 439.729 102.07 437.356 99.9897 437.356Z" fill="#8E8E8E"></path><path opacity="0.6" d="M57.6709 531.28C60.7295 531.28 62.7359 532.968 62.7359 535.513C62.7359 537.446 61.6348 538.889 59.7752 539.33V539.379C62.0508 539.648 63.3232 541.141 63.3232 543.563C63.3232 546.646 61.2678 548.53 57.8666 548.53C54.4655 548.53 52.4101 546.744 52.3122 543.734H54.7102C54.8325 545.349 56.007 546.279 57.8666 546.279C59.7997 546.279 60.8029 545.3 60.8029 543.416C60.8029 541.385 59.6529 540.553 56.9124 540.602H56.1293V538.449H56.9124C59.1145 538.449 60.2401 537.593 60.2401 535.929C60.2401 534.387 59.3103 533.531 57.6219 533.531C55.9091 533.531 54.9059 534.363 54.857 535.855H52.459C52.5569 533.041 54.5633 531.28 57.6709 531.28ZM76.9691 537.299C80.0277 537.299 82.0097 539.428 82.0097 542.682C82.0097 546.303 79.832 548.53 76.2595 548.53C73.5435 548.53 71.5126 547.307 70.5338 545.104L72.5647 543.857C73.4212 545.545 74.5712 546.279 76.2595 546.279C78.2905 546.279 79.5139 544.933 79.5139 542.731C79.5139 540.651 78.2905 539.354 76.3574 539.354C75.1829 539.354 74.0818 539.868 73.519 540.7H71.3902L72.2467 531.647H80.6884V533.947H74.1797L73.7148 538.376H73.7637C74.4978 537.715 75.7212 537.299 76.9691 537.299ZM88.5832 531.28C92.327 531.28 94.4068 534.363 94.4068 539.893C94.4068 545.423 92.327 548.53 88.5832 548.53C84.8395 548.53 82.7596 545.423 82.7596 539.893C82.7596 534.363 84.8395 531.28 88.5832 531.28ZM88.5832 533.531C86.5034 533.531 85.2555 535.904 85.2555 539.893C85.2555 543.881 86.5034 546.279 88.5832 546.279C90.6631 546.279 91.911 543.881 91.911 539.893C91.911 535.904 90.6631 533.531 88.5832 533.531ZM101.708 531.28C105.452 531.28 107.532 534.363 107.532 539.893C107.532 545.423 105.452 548.53 101.708 548.53C97.9647 548.53 95.8849 545.423 95.8849 539.893C95.8849 534.363 97.9647 531.28 101.708 531.28ZM101.708 533.531C99.6286 533.531 98.3807 535.904 98.3807 539.893C98.3807 543.881 99.6286 546.279 101.708 546.279C103.788 546.279 105.036 543.881 105.036 539.893C105.036 535.904 103.788 533.531 101.708 533.531Z" fill="#8E8E8E"></path><path opacity="0.6" d="M56.0451 617.97C59.1037 617.97 61.1101 619.658 61.1101 622.203C61.1101 624.136 60.009 625.58 58.1494 626.02V626.069C60.425 626.338 61.6974 627.831 61.6974 630.253C61.6974 633.336 59.642 635.221 56.2408 635.221C52.8396 635.221 50.7843 633.434 50.6864 630.425H53.0843C53.2067 632.04 54.3812 632.969 56.2408 632.969C58.1738 632.969 59.1771 631.991 59.1771 630.107C59.1771 628.076 58.027 627.244 55.2865 627.293H54.5035V625.139H55.2865C57.4887 625.139 58.6143 624.283 58.6143 622.619C58.6143 621.078 57.6845 620.221 55.9961 620.221C54.2833 620.221 53.2801 621.053 53.2311 622.546H50.8332C50.9311 619.732 52.9375 617.97 56.0451 617.97ZM75.0986 617.97C78.8423 617.97 80.9222 621.053 80.9222 626.583C80.9222 632.113 78.8423 635.221 75.0986 635.221C71.3549 635.221 69.275 632.113 69.275 626.583C69.275 621.053 71.3549 617.97 75.0986 617.97ZM75.0986 620.221C73.0188 620.221 71.7709 622.595 71.7709 626.583C71.7709 630.571 73.0188 632.969 75.0986 632.969C77.1785 632.969 78.4264 630.571 78.4264 626.583C78.4264 622.595 77.1785 620.221 75.0986 620.221ZM88.2238 617.97C91.9676 617.97 94.0474 621.053 94.0474 626.583C94.0474 632.113 91.9676 635.221 88.2238 635.221C84.4801 635.221 82.4003 632.113 82.4003 626.583C82.4003 621.053 84.4801 617.97 88.2238 617.97ZM88.2238 620.221C86.144 620.221 84.8961 622.595 84.8961 626.583C84.8961 630.571 86.144 632.969 88.2238 632.969C90.3037 632.969 91.5516 630.571 91.5516 626.583C91.5516 622.595 90.3037 620.221 88.2238 620.221ZM101.349 617.97C105.093 617.97 107.173 621.053 107.173 626.583C107.173 632.113 105.093 635.221 101.349 635.221C97.6053 635.221 95.5255 632.113 95.5255 626.583C95.5255 621.053 97.6053 617.97 101.349 617.97ZM101.349 620.221C99.2692 620.221 98.0213 622.595 98.0213 626.583C98.0213 630.571 99.2692 632.969 101.349 632.969C103.429 632.969 104.677 630.571 104.677 626.583C104.677 622.595 103.429 620.221 101.349 620.221Z" fill="#8E8E8E"></path><path opacity="0.6" d="M131.832 646.546H134.376V663.674H131.832V655.868H122.778V663.674H120.233V646.546H122.778V653.421H131.832V646.546ZM142.274 652.002C145.822 652.002 148.465 654.547 148.465 658.022C148.465 661.496 145.822 664.041 142.274 664.041C138.726 664.041 136.084 661.496 136.084 658.022C136.084 654.547 138.726 652.002 142.274 652.002ZM142.274 654.351C140.121 654.351 138.628 655.795 138.628 658.022C138.628 660.248 140.121 661.692 142.274 661.692C144.427 661.692 145.92 660.248 145.92 658.022C145.92 655.795 144.427 654.351 142.274 654.351ZM153.32 652.369H159.07V663.674H156.672V659.588H154.959L151.729 663.674H148.842L152.218 659.49C150.359 659.147 149.258 657.826 149.258 656.04C149.258 653.935 150.775 652.369 153.32 652.369ZM153.589 657.434H156.672V654.571H153.589C152.439 654.571 151.802 655.061 151.802 655.991C151.802 656.945 152.439 657.434 153.589 657.434ZM166.905 663.674V661.912L172.606 655.452C174.196 653.666 174.759 652.638 174.759 651.513C174.759 649.996 173.756 649.041 172.166 649.041C170.477 649.041 169.401 650.069 169.352 651.758H166.954C167.027 648.699 169.058 646.79 172.263 646.79C175.371 646.79 177.255 648.528 177.255 651.39C177.255 653.103 176.521 654.571 174.612 656.7L170.404 661.374H177.231V663.674H166.905ZM183.716 646.79C186.775 646.79 188.781 648.479 188.781 651.023C188.781 652.956 187.68 654.4 185.82 654.841V654.89C188.096 655.159 189.368 656.651 189.368 659.074C189.368 662.157 187.313 664.041 183.912 664.041C180.511 664.041 178.455 662.255 178.357 659.245H180.755C180.878 660.86 182.052 661.79 183.912 661.79C185.845 661.79 186.848 660.811 186.848 658.927C186.848 656.896 185.698 656.064 182.957 656.113H182.174V653.96H182.957C185.16 653.96 186.285 653.103 186.285 651.439C186.285 649.898 185.355 649.041 183.667 649.041C181.954 649.041 180.951 649.873 180.902 651.366H178.504C178.602 648.552 180.608 646.79 183.716 646.79Z" fill="#8E8E8E"></path><path opacity="0.6" d="M272.485 661.643H274.198V667.099H271.849V664.041H260.961V667.099H258.612V661.643H260.3C261.426 659.343 261.817 657.312 261.817 654.18V646.546H272.485V661.643ZM264.362 654.082C264.362 657.116 263.97 659.269 263.065 661.643H269.941V648.944H264.362V654.082ZM280.226 652.002C283.676 652.002 285.634 654.376 285.634 658.022V658.413H276.874C276.972 660.419 278.366 661.741 280.299 661.741C282.159 661.741 283.211 660.517 283.774 659.759L285.462 661.349C284.63 662.499 283.138 664.041 280.348 664.041C276.751 664.041 274.451 661.618 274.451 658.046C274.451 654.62 276.605 652.002 280.226 652.002ZM280.079 654.204C278.464 654.204 277.29 655.036 276.996 656.676H283.04C282.942 655.11 281.792 654.204 280.079 654.204ZM297.198 663.674H294.041L289.49 658.119V663.674H287.092V652.369H289.49V657.19L293.527 652.369H296.684L291.937 657.508L297.198 663.674ZM303.672 663.674V661.912L309.373 655.452C310.963 653.666 311.526 652.638 311.526 651.513C311.526 649.996 310.523 649.041 308.932 649.041C307.244 649.041 306.167 650.069 306.118 651.758H303.72C303.794 648.699 305.825 646.79 309.03 646.79C312.138 646.79 314.022 648.528 314.022 651.39C314.022 653.103 313.288 654.571 311.379 656.7L307.171 661.374H313.997V663.674H303.672ZM320.483 646.79C323.541 646.79 325.548 648.479 325.548 651.023C325.548 652.956 324.447 654.4 322.587 654.841V654.89C324.863 655.159 326.135 656.651 326.135 659.074C326.135 662.157 324.08 664.041 320.678 664.041C317.277 664.041 315.222 662.255 315.124 659.245H317.522C317.644 660.86 318.819 661.79 320.678 661.79C322.612 661.79 323.615 660.811 323.615 658.927C323.615 656.896 322.465 656.064 319.724 656.113H318.941V653.96H319.724C321.926 653.96 323.052 653.103 323.052 651.439C323.052 649.898 322.122 649.041 320.434 649.041C318.721 649.041 317.718 649.873 317.669 651.366H315.271C315.369 648.552 317.375 646.79 320.483 646.79Z" fill="#8E8E8E"></path><path opacity="0.6" d="M402.383 646.546H408.476V663.674H405.931V656.553H404.145L399.153 663.674H395.948L401.135 656.456C398.737 656.015 397.147 654.18 397.147 651.586C397.147 648.43 399.374 646.546 402.383 646.546ZM402.799 654.155H405.931V648.944H402.799C400.744 648.944 399.887 650.069 399.887 651.586C399.887 653.054 400.744 654.155 402.799 654.155ZM419.06 652.369H421.458V663.674H419.06V658.927H413.31V663.674H410.912V652.369H413.31V656.676H419.06V652.369ZM431.142 657.777C432.635 657.973 433.589 658.805 433.589 660.493C433.589 662.72 431.583 663.674 429.528 663.674H423.655V652.369H429.723C431.754 652.369 433.247 653.372 433.247 655.208C433.247 656.553 432.586 657.434 431.142 657.752V657.777ZM429.185 654.327H426.053V656.871H429.209C430.164 656.871 430.751 656.431 430.751 655.55C430.751 654.792 430.188 654.327 429.185 654.327ZM429.307 661.716C430.384 661.716 431.118 661.227 431.118 660.273C431.118 659.245 430.506 658.78 429.528 658.78H426.053V661.716H429.307ZM440.808 663.674V661.912L446.509 655.452C448.1 653.666 448.662 652.638 448.662 651.513C448.662 649.996 447.659 649.041 446.069 649.041C444.38 649.041 443.304 650.069 443.255 651.758H440.857C440.93 648.699 442.961 646.79 446.167 646.79C449.274 646.79 451.158 648.528 451.158 651.39C451.158 653.103 450.424 654.571 448.516 656.7L444.307 661.374H451.134V663.674H440.808ZM463.387 658.462V660.762H461.65V663.674H459.301V660.762H451.275V658.756L459.374 647.157H461.65V658.462H463.387ZM453.869 658.462H459.301V650.803H459.203L453.869 658.462Z" fill="#8E8E8E"></path><path opacity="0.6" d="M543.928 647.451C548.895 647.451 552.076 650.192 552.076 655.11C552.076 660.004 548.895 662.793 543.928 662.793V664.408H541.432V662.793C536.465 662.793 533.284 660.004 533.284 655.11C533.284 650.192 536.465 647.451 541.432 647.451V645.836H543.928V647.451ZM536.049 655.11C536.049 658.584 537.982 660.346 541.432 660.346H541.505V649.898H541.432C538.006 649.898 536.049 651.611 536.049 655.11ZM543.928 660.346C547.378 660.346 549.311 658.584 549.311 655.11C549.311 651.611 547.353 649.898 543.928 649.898H543.854V660.346H543.928ZM558.465 652.002C561.915 652.002 563.873 654.376 563.873 658.022V658.413H555.113C555.211 660.419 556.605 661.741 558.539 661.741C560.398 661.741 561.45 660.517 562.013 659.759L563.701 661.349C562.87 662.499 561.377 664.041 558.587 664.041C554.991 664.041 552.69 661.618 552.69 658.046C552.69 654.62 554.844 652.002 558.465 652.002ZM558.318 654.204C556.703 654.204 555.529 655.036 555.235 656.676H561.279C561.181 655.11 560.031 654.204 558.318 654.204ZM572.819 657.777C574.311 657.973 575.265 658.805 575.265 660.493C575.265 662.72 573.259 663.674 571.204 663.674H565.331V652.369H571.399C573.43 652.369 574.923 653.372 574.923 655.208C574.923 656.553 574.262 657.434 572.819 657.752V657.777ZM570.861 654.327H567.729V656.871H570.886C571.84 656.871 572.427 656.431 572.427 655.55C572.427 654.792 571.864 654.327 570.861 654.327ZM570.983 661.716C572.06 661.716 572.794 661.227 572.794 660.273C572.794 659.245 572.182 658.78 571.204 658.78H567.729V661.716H570.983ZM582.484 663.674V661.912L588.185 655.452C589.776 653.666 590.339 652.638 590.339 651.513C590.339 649.996 589.335 649.041 587.745 649.041C586.057 649.041 584.98 650.069 584.931 651.758H582.533C582.606 648.699 584.637 646.79 587.843 646.79C590.95 646.79 592.834 648.528 592.834 651.39C592.834 653.103 592.1 654.571 590.192 656.7L585.983 661.374H592.81V663.674H582.484ZM605.063 658.462V660.762H603.326V663.674H600.977V660.762H592.951V658.756L601.05 647.157H603.326V658.462H605.063ZM595.545 658.462H600.977V650.803H600.879L595.545 658.462Z" fill="#8E8E8E"></path><path opacity="0.6" d="M691.157 646.546L695.317 663.674H692.601L689.762 651.439H689.713L685.872 661.056H683.963L680.122 651.439H680.073L677.234 663.674H674.518L678.678 646.546H680.758L684.893 657.067H684.942L689.077 646.546H691.157ZM700.953 664.041C697.968 664.041 695.448 661.79 695.448 658.022C695.448 654.253 697.968 652.002 700.953 652.002C702.813 652.002 704.061 652.81 704.77 654.033H704.819V652.369H707.217V663.674H704.819V662.01H704.77C704.061 663.233 702.813 664.041 700.953 664.041ZM701.467 661.692C703.571 661.692 704.942 660.175 704.942 658.022C704.942 655.868 703.571 654.351 701.467 654.351C699.363 654.351 697.993 655.868 697.993 658.022C697.993 660.175 699.363 661.692 701.467 661.692ZM709.427 668.568V652.369H711.824V654.033H711.873C712.583 652.81 713.831 652.002 715.691 652.002C718.676 652.002 721.196 654.253 721.196 658.022C721.196 661.79 718.676 664.041 715.691 664.041C713.831 664.041 712.583 663.233 711.873 662.01H711.824V668.568H709.427ZM715.177 661.692C717.281 661.692 718.651 660.175 718.651 658.022C718.651 655.868 717.281 654.351 715.177 654.351C713.072 654.351 711.702 655.868 711.702 658.022C711.702 660.175 713.072 661.692 715.177 661.692ZM728.3 663.674V661.912L734.001 655.452C735.592 653.666 736.155 652.638 736.155 651.513C736.155 649.996 735.151 649.041 733.561 649.041C731.872 649.041 730.796 650.069 730.747 651.758H728.349C728.422 648.699 730.453 646.79 733.659 646.79C736.766 646.79 738.65 648.528 738.65 651.39C738.65 653.103 737.916 654.571 736.008 656.7L731.799 661.374H738.626V663.674H728.3ZM750.879 658.462V660.762H749.142V663.674H746.793V660.762H738.767V658.756L746.866 647.157H749.142V658.462H750.879ZM741.361 658.462H746.793V650.803H746.695L741.361 658.462Z" fill="#8E8E8E"></path><rect x="121.652" y="351.178" width="622.867" height="283.023" stroke="#E6E6E6" stroke-width="2.44688"></rect><line x1="277.981" y1="349.955" x2="277.981" y2="635.424" stroke="#E6E6E6" stroke-width="2.44688"></line><line x1="434.309" y1="349.955" x2="434.309" y2="635.424" stroke="#E6E6E6" stroke-width="2.44688"></line><line x1="590.638" y1="349.955" x2="590.638" y2="635.424" stroke="#E6E6E6" stroke-width="2.44688"></line><circle cx="744.723" cy="389.028" r="7.35246" fill="#4CB944"></circle><line x1="120.429" y1="443.888" x2="745.743" y2="443.888" stroke="#E6E6E6" stroke-width="2.44688"></line><circle cx="278.012" cy="523.972" r="7.35246" fill="#4CB944"></circle><line x1="120.429" y1="539.044" x2="745.743" y2="539.044" stroke="#E6E6E6" stroke-width="2.44688"></line><circle cx="434.865" cy="555.976" r="7.35246" fill="#4CB944"></circle><circle cx="121.788" cy="563.329" r="7.35246" fill="#4CB944"></circle><circle opacity="0.3" cx="121.788" cy="563.329" r="13.8388" fill="#4CB944"></circle><circle opacity="0.3" cx="744.723" cy="389.028" r="13.8388" fill="#4CB944"></circle><path d="M122.025 563.308L173.117 542.848C240.454 515.881 315.95 517.989 381.678 548.67C413.665 563.601 451.492 557.843 477.587 534.071L517.791 497.448C565.463 454.02 622.754 422.518 684.961 405.525L743.941 389.414" stroke="#4CB944" stroke-width="5.43752"></path><circle cx="590.601" cy="443.531" r="7.35246" fill="#4CB944"></circle><rect x="76.8955" y="166.042" width="455.532" height="78.3843" rx="10" fill="#3AAF61"></rect><path d="M120.513 223.234V188.312H127.873V217.141H142.849V223.234H120.513ZM153.091 223.234H145.193L157.24 188.312H166.755L178.779 223.234H170.904L162.138 196.281H161.857L153.091 223.234ZM152.623 209.5H171.302V215.266H152.623V209.5ZM185.693 223.234L175.708 188.312H183.771L189.56 212.57H189.865L196.216 188.312H203.13L209.482 212.641H209.787L215.576 188.312H223.638L213.63 223.234H206.435L199.826 200.406H199.544L192.912 223.234H185.693ZM241.216 206.031V211.797H225.279V206.031H241.216ZM245.951 223.234V188.312H259.708C262.349 188.312 264.599 188.781 266.458 189.719C268.333 190.656 269.763 191.984 270.748 193.703C271.748 195.406 272.248 197.414 272.248 199.727C272.248 202.039 271.748 204.031 270.748 205.703C269.748 207.375 268.294 208.656 266.388 209.547C264.498 210.422 262.208 210.859 259.521 210.859H250.31V204.93H258.326C259.748 204.93 260.919 204.734 261.841 204.344C262.779 203.953 263.474 203.375 263.927 202.609C264.396 201.844 264.63 200.883 264.63 199.727C264.63 198.555 264.396 197.578 263.927 196.797C263.474 196 262.779 195.398 261.841 194.992C260.904 194.57 259.724 194.359 258.302 194.359H253.31V223.234H245.951ZM265.333 223.234L256.826 207.344H264.794L273.49 223.234H265.333ZM297.466 188.312H304.849V210.977C304.849 213.523 304.24 215.758 303.021 217.68C301.818 219.586 300.13 221.07 297.958 222.133C295.787 223.195 293.255 223.727 290.365 223.727C287.474 223.727 284.943 223.195 282.771 222.133C280.599 221.07 278.912 219.586 277.708 217.68C276.505 215.758 275.904 213.523 275.904 210.977V188.312H283.263V210.367C283.263 211.695 283.56 212.883 284.154 213.93C284.748 214.961 285.576 215.773 286.638 216.367C287.701 216.945 288.943 217.234 290.365 217.234C291.802 217.234 293.052 216.945 294.115 216.367C295.177 215.773 295.998 214.961 296.576 213.93C297.169 212.883 297.466 211.695 297.466 210.367V188.312ZM322.31 223.727C319.498 223.727 317.044 223.297 314.951 222.438C312.873 221.578 311.248 220.297 310.076 218.594C308.919 216.891 308.31 214.781 308.248 212.266H315.373C315.466 213.422 315.81 214.398 316.404 215.195C316.998 215.977 317.794 216.562 318.794 216.953C319.794 217.344 320.943 217.539 322.24 217.539C323.49 217.539 324.576 217.359 325.498 217C326.435 216.641 327.154 216.141 327.654 215.5C328.169 214.844 328.427 214.086 328.427 213.227C328.427 212.445 328.193 211.789 327.724 211.258C327.271 210.727 326.599 210.273 325.708 209.898C324.833 209.523 323.763 209.188 322.498 208.891L318.677 207.953C315.74 207.25 313.419 206.133 311.716 204.602C310.013 203.055 309.162 200.992 309.162 198.414C309.162 196.305 309.732 194.461 310.873 192.883C312.029 191.289 313.599 190.055 315.583 189.18C317.583 188.289 319.857 187.844 322.404 187.844C324.998 187.844 327.255 188.289 329.177 189.18C331.115 190.07 332.623 191.305 333.701 192.883C334.794 194.461 335.357 196.281 335.388 198.344H328.287C328.162 196.984 327.576 195.922 326.529 195.156C325.498 194.391 324.099 194.008 322.333 194.008C321.146 194.008 320.13 194.18 319.287 194.523C318.458 194.852 317.826 195.312 317.388 195.906C316.951 196.5 316.732 197.18 316.732 197.945C316.732 198.758 316.982 199.445 317.482 200.008C317.982 200.555 318.646 201.008 319.474 201.367C320.318 201.711 321.24 202 322.24 202.234L325.357 203.008C326.873 203.352 328.271 203.812 329.552 204.391C330.833 204.953 331.943 205.648 332.88 206.477C333.833 207.305 334.568 208.281 335.083 209.406C335.599 210.516 335.857 211.797 335.857 213.25C335.857 215.391 335.318 217.25 334.24 218.828C333.177 220.391 331.638 221.602 329.623 222.461C327.607 223.305 325.169 223.727 322.31 223.727ZM352.169 223.727C349.357 223.727 346.904 223.297 344.81 222.438C342.732 221.578 341.107 220.297 339.935 218.594C338.779 216.891 338.169 214.781 338.107 212.266H345.232C345.326 213.422 345.669 214.398 346.263 215.195C346.857 215.977 347.654 216.562 348.654 216.953C349.654 217.344 350.802 217.539 352.099 217.539C353.349 217.539 354.435 217.359 355.357 217C356.294 216.641 357.013 216.141 357.513 215.5C358.029 214.844 358.287 214.086 358.287 213.227C358.287 212.445 358.052 211.789 357.583 211.258C357.13 210.727 356.458 210.273 355.568 209.898C354.693 209.523 353.623 209.188 352.357 208.891L348.537 207.953C345.599 207.25 343.279 206.133 341.576 204.602C339.873 203.055 339.021 200.992 339.021 198.414C339.021 196.305 339.591 194.461 340.732 192.883C341.888 191.289 343.458 190.055 345.443 189.18C347.443 188.289 349.716 187.844 352.263 187.844C354.857 187.844 357.115 188.289 359.037 189.18C360.974 190.07 362.482 191.305 363.56 192.883C364.654 194.461 365.216 196.281 365.248 198.344H358.146C358.021 196.984 357.435 195.922 356.388 195.156C355.357 194.391 353.958 194.008 352.193 194.008C351.005 194.008 349.99 194.18 349.146 194.523C348.318 194.852 347.685 195.312 347.248 195.906C346.81 196.5 346.591 197.18 346.591 197.945C346.591 198.758 346.841 199.445 347.341 200.008C347.841 200.555 348.505 201.008 349.333 201.367C350.177 201.711 351.099 202 352.099 202.234L355.216 203.008C356.732 203.352 358.13 203.812 359.412 204.391C360.693 204.953 361.802 205.648 362.74 206.477C363.693 207.305 364.427 208.281 364.943 209.406C365.458 210.516 365.716 211.797 365.716 213.25C365.716 215.391 365.177 217.25 364.099 218.828C363.037 220.391 361.498 221.602 359.482 222.461C357.466 223.305 355.029 223.727 352.169 223.727ZM376.451 188.312V223.234H369.091V188.312H376.451ZM386.951 223.234H379.052L391.099 188.312H400.615L412.638 223.234H404.763L395.998 196.281H395.716L386.951 223.234ZM386.482 209.5H405.162V215.266H386.482V209.5ZM420.326 223.68C419.169 223.68 418.193 223.289 417.396 222.508C416.599 221.727 416.201 220.758 416.201 219.602C416.201 218.445 416.599 217.477 417.396 216.695C418.193 215.914 419.169 215.523 420.326 215.523C421.482 215.523 422.458 215.914 423.255 216.695C424.052 217.477 424.451 218.445 424.451 219.602C424.451 220.758 424.052 221.727 423.255 222.508C422.458 223.289 421.482 223.68 420.326 223.68ZM429.888 223.234V188.312H443.646C446.287 188.312 448.537 188.781 450.396 189.719C452.271 190.656 453.701 191.984 454.685 193.703C455.685 195.406 456.185 197.414 456.185 199.727C456.185 202.039 455.685 204.031 454.685 205.703C453.685 207.375 452.232 208.656 450.326 209.547C448.435 210.422 446.146 210.859 443.458 210.859H434.248V204.93H442.263C443.685 204.93 444.857 204.734 445.779 204.344C446.716 203.953 447.412 203.375 447.865 202.609C448.333 201.844 448.568 200.883 448.568 199.727C448.568 198.555 448.333 197.578 447.865 196.797C447.412 196 446.716 195.398 445.779 194.992C444.841 194.57 443.662 194.359 442.24 194.359H437.248V223.234H429.888ZM449.271 223.234L440.763 207.344H448.732L457.427 223.234H449.271ZM481.404 188.312H488.787V210.977C488.787 213.523 488.177 215.758 486.958 217.68C485.755 219.586 484.068 221.07 481.896 222.133C479.724 223.195 477.193 223.727 474.302 223.727C471.412 223.727 468.88 223.195 466.708 222.133C464.537 221.07 462.849 219.586 461.646 217.68C460.443 215.758 459.841 213.523 459.841 210.977V188.312H467.201V210.367C467.201 211.695 467.498 212.883 468.091 213.93C468.685 214.961 469.513 215.773 470.576 216.367C471.638 216.945 472.88 217.234 474.302 217.234C475.74 217.234 476.99 216.945 478.052 216.367C479.115 215.773 479.935 214.961 480.513 213.93C481.107 212.883 481.404 211.695 481.404 210.367V188.312Z" fill="white"></path><defs><linearGradient id="paint0_linear_190_109" x1="400" y1="0" x2="400" y2="1020.92" gradientUnits="userSpaceOnUse"><stop offset="0.75" stop-color="white"></stop><stop offset="1" stop-color="#3AAF61"></stop></linearGradient></defs></svg> 