<?xml version="1.0" encoding="UTF-8"?> <svg xmlns="http://www.w3.org/2000/svg" width="800" height="800" viewBox="0 0 800 800" fill="none"><rect width="800" height="800" fill="url(#paint0_linear_194_224)"></rect><path opacity="0.6" d="M138.364 260.782V264.558H132.252V283.182H128.156V264.558H122.044V260.782H138.364ZM136.962 289.582V268.398H140.866V270.478H140.93C141.858 268.942 143.458 267.918 145.858 267.918C149.73 267.918 152.962 270.734 152.962 275.79C152.962 280.846 149.73 283.662 145.858 283.662C143.458 283.662 141.858 282.638 140.93 281.102H140.866V289.582H136.962ZM144.866 279.95C147.234 279.95 148.866 278.286 148.866 275.79C148.866 273.294 147.234 271.63 144.866 271.63C142.498 271.63 140.866 273.294 140.866 275.79C140.866 278.286 142.498 279.95 144.866 279.95ZM160.773 283.662C156.901 283.662 153.669 280.846 153.669 275.79C153.669 270.734 156.901 267.918 160.773 267.918C163.173 267.918 164.773 268.942 165.701 270.478H165.765V268.398H169.669V283.182H165.765V281.102H165.701C164.773 282.638 163.173 283.662 160.773 283.662ZM161.765 279.95C164.133 279.95 165.765 278.286 165.765 275.79C165.765 273.294 164.133 271.63 161.765 271.63C159.397 271.63 157.765 273.294 157.765 275.79C157.765 278.286 159.397 279.95 161.765 279.95ZM182.345 289.582V281.102H182.281C181.417 282.638 180.137 283.662 177.737 283.662C173.993 283.662 171.369 280.814 171.369 275.79C171.369 270.766 173.993 267.918 177.737 267.918C180.137 267.918 181.417 268.942 182.281 270.478H182.345V261.582H186.121V270.478H186.185C187.049 268.942 188.393 267.918 190.761 267.918C194.505 267.918 197.129 270.766 197.129 275.79C197.129 280.814 194.505 283.662 190.761 283.662C188.393 283.662 187.049 282.638 186.185 281.102H186.121V289.582H182.345ZM178.953 280.174C181.225 280.174 182.505 278.446 182.505 275.79C182.505 273.134 181.225 271.406 178.953 271.406C176.649 271.406 175.529 273.134 175.529 275.79C175.529 278.446 176.649 280.174 178.953 280.174ZM189.545 280.174C191.817 280.174 192.969 278.446 192.969 275.79C192.969 273.134 191.817 271.406 189.545 271.406C187.273 271.406 185.961 273.134 185.961 275.79C185.961 278.446 187.273 280.174 189.545 280.174ZM198.895 283.182V268.398H202.799V277.358H202.863L209.711 268.398H213.263V283.182H209.327V274.222H209.263L202.415 283.182H198.895ZM230.276 283.182H225.156L219.62 276.142V283.182H215.716V268.398H219.62V274.478L224.484 268.398H229.476L223.428 275.118L230.276 283.182Z" fill="#10090C"></path><path opacity="0.6" d="M51.452 562.736V560.975L57.1532 554.515C58.7437 552.729 59.3065 551.701 59.3065 550.575C59.3065 549.058 58.3033 548.104 56.7128 548.104C55.0244 548.104 53.9478 549.132 53.8989 550.82H51.5009C51.5743 547.761 53.6052 545.853 56.8107 545.853C59.9182 545.853 61.8023 547.59 61.8023 550.453C61.8023 552.166 61.0682 553.634 59.1597 555.763L54.951 560.436H61.7778V562.736H51.452ZM75.458 545.853C79.2017 545.853 81.2816 548.936 81.2816 554.466C81.2816 559.996 79.2017 563.103 75.458 563.103C71.7143 563.103 69.6344 559.996 69.6344 554.466C69.6344 548.936 71.7143 545.853 75.458 545.853ZM75.458 548.104C73.3781 548.104 72.1302 550.477 72.1302 554.466C72.1302 558.454 73.3781 560.852 75.458 560.852C77.5378 560.852 78.7858 558.454 78.7858 554.466C78.7858 550.477 77.5378 548.104 75.458 548.104ZM88.5832 545.853C92.327 545.853 94.4068 548.936 94.4068 554.466C94.4068 559.996 92.327 563.103 88.5832 563.103C84.8395 563.103 82.7596 559.996 82.7596 554.466C82.7596 548.936 84.8395 545.853 88.5832 545.853ZM88.5832 548.104C86.5034 548.104 85.2555 550.477 85.2555 554.466C85.2555 558.454 86.5034 560.852 88.5832 560.852C90.6631 560.852 91.911 558.454 91.911 554.466C91.911 550.477 90.6631 548.104 88.5832 548.104ZM101.708 545.853C105.452 545.853 107.532 548.936 107.532 554.466C107.532 559.996 105.452 563.103 101.708 563.103C97.9647 563.103 95.8849 559.996 95.8849 554.466C95.8849 548.936 97.9647 545.853 101.708 545.853ZM101.708 548.104C99.6286 548.104 98.3807 550.477 98.3807 554.466C98.3807 558.454 99.6286 560.852 101.708 560.852C103.788 560.852 105.036 558.454 105.036 554.466C105.036 550.477 103.788 548.104 101.708 548.104Z" fill="#8E8E8E"></path><path opacity="0.6" d="M62.2919 475.524V477.825H60.5546V480.736H58.2056V477.825H50.1798V475.818L58.279 464.22H60.5546V475.524H62.2919ZM52.7735 475.524H58.2056V467.866H58.1077L52.7735 475.524ZM75.458 463.853C79.2017 463.853 81.2816 466.936 81.2816 472.466C81.2816 477.996 79.2017 481.103 75.458 481.103C71.7143 481.103 69.6344 477.996 69.6344 472.466C69.6344 466.936 71.7143 463.853 75.458 463.853ZM75.458 466.104C73.3781 466.104 72.1302 468.477 72.1302 472.466C72.1302 476.454 73.3781 478.852 75.458 478.852C77.5378 478.852 78.7858 476.454 78.7858 472.466C78.7858 468.477 77.5378 466.104 75.458 466.104ZM88.5832 463.853C92.327 463.853 94.4068 466.936 94.4068 472.466C94.4068 477.996 92.327 481.103 88.5832 481.103C84.8395 481.103 82.7596 477.996 82.7596 472.466C82.7596 466.936 84.8395 463.853 88.5832 463.853ZM88.5832 466.104C86.5034 466.104 85.2555 468.477 85.2555 472.466C85.2555 476.454 86.5034 478.852 88.5832 478.852C90.6631 478.852 91.911 476.454 91.911 472.466C91.911 468.477 90.6631 466.104 88.5832 466.104ZM101.708 463.853C105.452 463.853 107.532 466.936 107.532 472.466C107.532 477.996 105.452 481.103 101.708 481.103C97.9647 481.103 95.8849 477.996 95.8849 472.466C95.8849 466.936 97.9647 463.853 101.708 463.853ZM101.708 466.104C99.6286 466.104 98.3807 468.477 98.3807 472.466C98.3807 476.454 99.6286 478.852 101.708 478.852C103.788 478.852 105.036 476.454 105.036 472.466C105.036 468.477 103.788 466.104 101.708 466.104Z" fill="#8E8E8E"></path><path opacity="0.6" d="M56.6071 398.942C53.0591 398.942 50.759 396.593 50.759 392.996C50.759 390.28 51.6644 388.176 54.0868 385.362L56.9741 381.936H59.9593L53.891 389.032L53.9644 389.081C54.9187 388.054 55.9219 387.589 57.1943 387.589C60.2774 387.589 62.4062 389.889 62.4062 393.217C62.4062 396.593 60.0327 398.942 56.6071 398.942ZM56.5826 396.691C58.6135 396.691 59.9104 395.321 59.9104 393.217C59.9104 391.112 58.6135 389.766 56.5581 389.766C54.5272 389.766 53.2304 391.137 53.2304 393.241C53.2304 395.345 54.5272 396.691 56.5826 396.691ZM75.458 381.692C79.2017 381.692 81.2816 384.775 81.2816 390.305C81.2816 395.835 79.2017 398.942 75.458 398.942C71.7143 398.942 69.6344 395.835 69.6344 390.305C69.6344 384.775 71.7143 381.692 75.458 381.692ZM75.458 383.943C73.3781 383.943 72.1302 386.316 72.1302 390.305C72.1302 394.293 73.3781 396.691 75.458 396.691C77.5378 396.691 78.7858 394.293 78.7858 390.305C78.7858 386.316 77.5378 383.943 75.458 383.943ZM88.5832 381.692C92.327 381.692 94.4068 384.775 94.4068 390.305C94.4068 395.835 92.327 398.942 88.5832 398.942C84.8395 398.942 82.7596 395.835 82.7596 390.305C82.7596 384.775 84.8395 381.692 88.5832 381.692ZM88.5832 383.943C86.5034 383.943 85.2555 386.316 85.2555 390.305C85.2555 394.293 86.5034 396.691 88.5832 396.691C90.6631 396.691 91.911 394.293 91.911 390.305C91.911 386.316 90.6631 383.943 88.5832 383.943ZM101.708 381.692C105.452 381.692 107.532 384.775 107.532 390.305C107.532 395.835 105.452 398.942 101.708 398.942C97.9647 398.942 95.8849 395.835 95.8849 390.305C95.8849 384.775 97.9647 381.692 101.708 381.692ZM101.708 383.943C99.6286 383.943 98.3807 386.316 98.3807 390.305C98.3807 394.293 99.6286 396.691 101.708 396.691C103.788 396.691 105.036 394.293 105.036 390.305C105.036 386.316 103.788 383.943 101.708 383.943Z" fill="#8E8E8E"></path><path opacity="0.6" d="M56.4136 316.781C52.9635 316.781 50.7858 314.873 50.7858 311.838C50.7858 309.734 51.9358 308.144 53.8199 307.581V307.532C52.2784 307.067 51.2507 305.599 51.2507 303.886C51.2507 301.268 53.3061 299.531 56.4136 299.531C59.5211 299.531 61.5765 301.268 61.5765 303.886C61.5765 305.599 60.5488 307.067 59.0073 307.532V307.581C60.8914 308.144 62.0414 309.734 62.0414 311.838C62.0414 314.873 59.8637 316.781 56.4136 316.781ZM56.4136 306.504C58.0286 306.504 59.0562 305.574 59.0562 304.082C59.0562 302.589 58.053 301.659 56.4136 301.659C54.7742 301.659 53.771 302.589 53.771 304.082C53.771 305.574 54.7987 306.504 56.4136 306.504ZM56.4136 314.652C58.3956 314.652 59.5211 313.551 59.5211 311.643C59.5211 309.832 58.3222 308.682 56.4136 308.682C54.505 308.682 53.3061 309.832 53.3061 311.643C53.3061 313.551 54.4316 314.652 56.4136 314.652ZM75.458 299.531C79.2017 299.531 81.2816 302.614 81.2816 308.144C81.2816 313.674 79.2017 316.781 75.458 316.781C71.7143 316.781 69.6344 313.674 69.6344 308.144C69.6344 302.614 71.7143 299.531 75.458 299.531ZM75.458 301.782C73.3781 301.782 72.1302 304.155 72.1302 308.144C72.1302 312.132 73.3781 314.53 75.458 314.53C77.5378 314.53 78.7858 312.132 78.7858 308.144C78.7858 304.155 77.5378 301.782 75.458 301.782ZM88.5832 299.531C92.327 299.531 94.4068 302.614 94.4068 308.144C94.4068 313.674 92.327 316.781 88.5832 316.781C84.8395 316.781 82.7596 313.674 82.7596 308.144C82.7596 302.614 84.8395 299.531 88.5832 299.531ZM88.5832 301.782C86.5034 301.782 85.2555 304.155 85.2555 308.144C85.2555 312.132 86.5034 314.53 88.5832 314.53C90.6631 314.53 91.911 312.132 91.911 308.144C91.911 304.155 90.6631 301.782 88.5832 301.782ZM101.708 299.531C105.452 299.531 107.532 302.614 107.532 308.144C107.532 313.674 105.452 316.781 101.708 316.781C97.9647 316.781 95.8849 313.674 95.8849 308.144C95.8849 302.614 97.9647 299.531 101.708 299.531ZM101.708 301.782C99.6286 301.782 98.3807 304.155 98.3807 308.144C98.3807 312.132 99.6286 314.53 101.708 314.53C103.788 314.53 105.036 312.132 105.036 308.144C105.036 304.155 103.788 301.782 101.708 301.782Z" fill="#8E8E8E"></path><path opacity="0.6" d="M101.349 617.97C105.093 617.97 107.173 621.053 107.173 626.583C107.173 632.113 105.093 635.221 101.349 635.221C97.6053 635.221 95.5255 632.113 95.5255 626.583C95.5255 621.053 97.6053 617.97 101.349 617.97ZM101.349 620.221C99.2692 620.221 98.0213 622.595 98.0213 626.583C98.0213 630.571 99.2692 632.969 101.349 632.969C103.429 632.969 104.677 630.571 104.677 626.583C104.677 622.595 103.429 620.221 101.349 620.221Z" fill="#8E8E8E"></path><path opacity="0.6" d="M120.233 646.546H122.778V659.465H122.827L131.244 646.546H133.911V663.674H131.366V650.754H131.317L122.9 663.674H120.233V646.546ZM146.518 652.002C150.066 652.002 152.709 654.547 152.709 658.022C152.709 661.496 150.066 664.041 146.518 664.041C143.313 664.041 140.866 661.985 140.401 659.025H138.761V663.674H136.363V652.369H138.761V656.994H140.401C140.866 654.058 143.337 652.002 146.518 652.002ZM146.518 661.692C148.671 661.692 150.164 660.248 150.164 658.022C150.164 655.795 148.671 654.351 146.518 654.351C144.365 654.351 142.872 655.795 142.872 658.022C142.872 660.248 144.365 661.692 146.518 661.692ZM164.06 652.369V663.674H161.662V654.62H157.013V660.566C157.013 662.768 155.79 663.845 154.004 663.845H152.829V661.667H153.612C154.395 661.667 154.615 661.251 154.615 660.542V652.369H164.06ZM171.899 663.674V661.912L177.6 655.452C179.19 653.666 179.753 652.638 179.753 651.513C179.753 649.996 178.75 649.041 177.159 649.041C175.471 649.041 174.394 650.069 174.345 651.758H171.948C172.021 648.699 174.052 646.79 177.257 646.79C180.365 646.79 182.249 648.528 182.249 651.39C182.249 653.103 181.515 654.571 179.606 656.7L175.398 661.374H182.224V663.674H171.899ZM188.71 646.79C191.768 646.79 193.775 648.479 193.775 651.023C193.775 652.956 192.674 654.4 190.814 654.841V654.89C193.09 655.159 194.362 656.651 194.362 659.074C194.362 662.157 192.307 664.041 188.906 664.041C185.504 664.041 183.449 662.255 183.351 659.245H185.749C185.871 660.86 187.046 661.79 188.906 661.79C190.839 661.79 191.842 660.811 191.842 658.927C191.842 656.896 190.692 656.064 187.951 656.113H187.168V653.96H187.951C190.153 653.96 191.279 653.103 191.279 651.439C191.279 649.898 190.349 649.041 188.661 649.041C186.948 649.041 185.945 649.873 185.896 651.366H183.498C183.596 648.552 185.602 646.79 188.71 646.79Z" fill="#8E8E8E"></path><path opacity="0.6" d="M683.668 646.546H689.76V663.674H687.216V656.553H685.429L680.438 663.674H677.232L682.42 656.456C680.022 656.015 678.431 654.18 678.431 651.586C678.431 648.43 680.658 646.546 683.668 646.546ZM684.084 654.155H687.216V648.944H684.084C682.028 648.944 681.172 650.069 681.172 651.586C681.172 653.054 682.028 654.155 684.084 654.155ZM700.345 652.369H702.743V663.674H700.345V658.927H694.594V663.674H692.197V652.369H694.594V656.676H700.345V652.369ZM712.427 657.777C713.919 657.973 714.874 658.805 714.874 660.493C714.874 662.72 712.867 663.674 710.812 663.674H704.939V652.369H711.008C713.039 652.369 714.531 653.372 714.531 655.208C714.531 656.553 713.871 657.434 712.427 657.752V657.777ZM710.469 654.327H707.337V656.871H710.494C711.448 656.871 712.035 656.431 712.035 655.55C712.035 654.792 711.473 654.327 710.469 654.327ZM710.592 661.716C711.668 661.716 712.402 661.227 712.402 660.273C712.402 659.245 711.791 658.78 710.812 658.78H707.337V661.716H710.592ZM722.092 663.674V661.912L727.794 655.452C729.384 653.666 729.947 652.638 729.947 651.513C729.947 649.996 728.944 649.041 727.353 649.041C725.665 649.041 724.588 650.069 724.539 651.758H722.141C722.215 648.699 724.246 646.79 727.451 646.79C730.559 646.79 732.443 648.528 732.443 651.39C732.443 653.103 731.709 654.571 729.8 656.7L725.591 661.374H732.418V663.674H722.092ZM744.672 658.462V660.762H742.934V663.674H740.585V660.762H732.56V658.756L740.659 647.157H742.934V658.462H744.672ZM735.153 658.462H740.585V650.803H740.487L735.153 658.462Z" fill="#8E8E8E"></path><rect x="121.652" y="309.799" width="622.867" height="324.403" stroke="#E6E6E6" stroke-width="2.44688"></rect><line x1="209.721" y1="308.575" x2="209.721" y2="635.425" stroke="#E6E6E6" stroke-width="2.44688"></line><line x1="317.721" y1="308.575" x2="317.721" y2="635.425" stroke="#E6E6E6" stroke-width="2.44688"></line><line x1="425.721" y1="308.575" x2="425.721" y2="635.425" stroke="#E6E6E6" stroke-width="2.44688"></line><line x1="533.721" y1="308.575" x2="533.721" y2="635.425" stroke="#E6E6E6" stroke-width="2.44688"></line><line x1="641.721" y1="308.575" x2="641.721" y2="635.425" stroke="#E6E6E6" stroke-width="2.44688"></line><line x1="120.429" y1="348.352" x2="745.743" y2="348.352" stroke="#E6E6E6" stroke-width="2.44688"></line><line x1="120.429" y1="389.352" x2="745.743" y2="389.352" stroke="#E6E6E6" stroke-width="2.44688"></line><line x1="120.429" y1="430.352" x2="745.743" y2="430.352" stroke="#E6E6E6" stroke-width="2.44688"></line><line x1="120.429" y1="471.352" x2="745.743" y2="471.352" stroke="#E6E6E6" stroke-width="2.44688"></line><line x1="120.429" y1="512.352" x2="745.743" y2="512.352" stroke="#E6E6E6" stroke-width="2.44688"></line><line x1="120.429" y1="553.352" x2="745.743" y2="553.352" stroke="#E6E6E6" stroke-width="2.44688"></line><line x1="120.429" y1="594.352" x2="745.743" y2="594.352" stroke="#E6E6E6" stroke-width="2.44688"></line><circle cx="208.498" cy="458.736" r="7.35246" fill="#4CB944"></circle><circle cx="317.395" cy="486.75" r="7.35246" fill="#4CB944"></circle><circle cx="425.733" cy="472" r="7.35246" fill="#4CB944"></circle><circle cx="533.498" cy="470.182" r="7.35246" fill="#4CB944"></circle><circle cx="745.743" cy="349.575" r="7.35246" fill="#4CB944"></circle><circle cx="641.671" cy="427.223" r="7.35246" fill="#4CB944"></circle><circle opacity="0.3" cx="121.788" cy="503.808" r="13.8388" fill="#4CB944"></circle><circle opacity="0.3" cx="745.743" cy="349.575" r="13.8388" fill="#4CB944"></circle><circle cx="121.788" cy="503.808" r="7.35246" fill="#4CB944"></circle><rect x="48.0746" y="128.15" width="705.021" height="78.3843" rx="10" fill="#3AAF61"></rect><path d="M89.3818 185.836C86.5693 185.836 84.1162 185.406 82.0225 184.547C79.9443 183.688 78.3193 182.406 77.1475 180.703C75.9912 179 75.3818 176.891 75.3193 174.375H82.4443C82.5381 175.531 82.8818 176.508 83.4756 177.305C84.0693 178.086 84.8662 178.672 85.8662 179.062C86.8662 179.453 88.0146 179.648 89.3115 179.648C90.5615 179.648 91.6475 179.469 92.5693 179.109C93.5068 178.75 94.2256 178.25 94.7256 177.609C95.2412 176.953 95.499 176.195 95.499 175.336C95.499 174.555 95.2646 173.898 94.7959 173.367C94.3428 172.836 93.6709 172.383 92.7803 172.008C91.9053 171.633 90.835 171.297 89.5693 171L85.749 170.062C82.8115 169.359 80.4912 168.242 78.7881 166.711C77.085 165.164 76.2334 163.102 76.2334 160.523C76.2334 158.414 76.8037 156.57 77.9443 154.992C79.1006 153.398 80.6709 152.164 82.6553 151.289C84.6553 150.398 86.9287 149.953 89.4756 149.953C92.0693 149.953 94.3271 150.398 96.249 151.289C98.1865 152.18 99.6943 153.414 100.772 154.992C101.866 156.57 102.429 158.391 102.46 160.453H95.3584C95.2334 159.094 94.6475 158.031 93.6006 157.266C92.5693 156.5 91.1709 156.117 89.4053 156.117C88.2178 156.117 87.2021 156.289 86.3584 156.633C85.5303 156.961 84.8975 157.422 84.46 158.016C84.0225 158.609 83.8037 159.289 83.8037 160.055C83.8037 160.867 84.0537 161.555 84.5537 162.117C85.0537 162.664 85.7178 163.117 86.5459 163.477C87.3896 163.82 88.3115 164.109 89.3115 164.344L92.4287 165.117C93.9443 165.461 95.3428 165.922 96.624 166.5C97.9053 167.062 99.0146 167.758 99.9521 168.586C100.905 169.414 101.64 170.391 102.155 171.516C102.671 172.625 102.929 173.906 102.929 175.359C102.929 177.5 102.39 179.359 101.312 180.938C100.249 182.5 98.71 183.711 96.6943 184.57C94.6787 185.414 92.2412 185.836 89.3818 185.836ZM127.866 150.422H135.249V173.086C135.249 175.633 134.64 177.867 133.421 179.789C132.218 181.695 130.53 183.18 128.358 184.242C126.187 185.305 123.655 185.836 120.765 185.836C117.874 185.836 115.343 185.305 113.171 184.242C110.999 183.18 109.312 181.695 108.108 179.789C106.905 177.867 106.304 175.633 106.304 173.086V150.422H113.663V172.477C113.663 173.805 113.96 174.992 114.554 176.039C115.147 177.07 115.976 177.883 117.038 178.477C118.101 179.055 119.343 179.344 120.765 179.344C122.202 179.344 123.452 179.055 124.515 178.477C125.577 177.883 126.397 177.07 126.976 176.039C127.569 174.992 127.866 173.805 127.866 172.477V150.422ZM139.772 185.344V150.422H153.53C156.171 150.422 158.421 150.891 160.28 151.828C162.155 152.766 163.585 154.094 164.569 155.812C165.569 157.516 166.069 159.523 166.069 161.836C166.069 164.148 165.569 166.141 164.569 167.812C163.569 169.484 162.116 170.766 160.21 171.656C158.319 172.531 156.03 172.969 153.343 172.969H144.132V167.039H152.147C153.569 167.039 154.741 166.844 155.663 166.453C156.601 166.062 157.296 165.484 157.749 164.719C158.218 163.953 158.452 162.992 158.452 161.836C158.452 160.664 158.218 159.688 157.749 158.906C157.296 158.109 156.601 157.508 155.663 157.102C154.726 156.68 153.546 156.469 152.124 156.469H147.132V185.344H139.772ZM159.155 185.344L150.647 169.453H158.616L167.312 185.344H159.155ZM169.726 185.344V150.422H192.835V156.516H177.085V166.102H191.312V172.078H177.085V185.344H169.726ZM205.819 185.344V150.422H219.788C222.351 150.422 224.491 150.805 226.21 151.57C227.929 152.336 229.218 153.391 230.077 154.734C230.952 156.078 231.39 157.625 231.39 159.375C231.39 160.734 231.108 161.93 230.546 162.961C229.999 163.992 229.249 164.836 228.296 165.492C227.358 166.148 226.28 166.609 225.062 166.875V167.227C226.39 167.289 227.64 167.664 228.812 168.352C229.983 169.039 230.929 170.008 231.647 171.258C232.382 172.492 232.749 173.969 232.749 175.688C232.749 177.531 232.288 179.188 231.366 180.656C230.46 182.109 229.116 183.258 227.335 184.102C225.554 184.93 223.351 185.344 220.726 185.344H205.819ZM213.179 179.32H219.226C221.272 179.32 222.765 178.922 223.702 178.125C224.655 177.328 225.132 176.273 225.132 174.961C225.132 173.992 224.897 173.141 224.429 172.406C223.976 171.656 223.319 171.07 222.46 170.648C221.601 170.227 220.577 170.016 219.39 170.016H213.179V179.32ZM213.179 165.047H218.663C219.679 165.047 220.577 164.867 221.358 164.508C222.155 164.148 222.78 163.641 223.233 162.984C223.687 162.312 223.913 161.516 223.913 160.594C223.913 159.344 223.468 158.336 222.577 157.57C221.702 156.789 220.444 156.398 218.804 156.398H213.179V165.047ZM235.96 185.344V150.422H249.718C252.358 150.422 254.608 150.891 256.468 151.828C258.343 152.766 259.772 154.094 260.757 155.812C261.757 157.516 262.257 159.523 262.257 161.836C262.257 164.148 261.757 166.141 260.757 167.812C259.757 169.484 258.304 170.766 256.397 171.656C254.507 172.531 252.218 172.969 249.53 172.969H240.319V167.039H248.335C249.757 167.039 250.929 166.844 251.851 166.453C252.788 166.062 253.483 165.484 253.937 164.719C254.405 163.953 254.64 162.992 254.64 161.836C254.64 160.664 254.405 159.688 253.937 158.906C253.483 158.109 252.788 157.508 251.851 157.102C250.913 156.68 249.733 156.469 248.312 156.469H243.319V185.344H235.96ZM255.343 185.344L246.835 169.453H254.804L263.499 185.344H255.343ZM281.64 185.812C278.546 185.812 275.765 185.109 273.296 183.703C270.827 182.297 268.874 180.258 267.437 177.586C265.999 174.914 265.28 171.688 265.28 167.906C265.28 164.094 265.999 160.852 267.437 158.18C268.874 155.492 270.827 153.453 273.296 152.062C275.765 150.656 278.546 149.953 281.64 149.953C284.733 149.953 287.515 150.656 289.983 152.062C292.452 153.453 294.397 155.492 295.819 158.18C297.257 160.852 297.976 164.094 297.976 167.906C297.976 171.703 297.257 174.938 295.819 177.609C294.397 180.281 292.452 182.32 289.983 183.727C287.515 185.117 284.733 185.812 281.64 185.812ZM281.64 179.297C283.437 179.297 284.999 178.859 286.327 177.984C287.655 177.109 288.679 175.828 289.397 174.141C290.132 172.438 290.499 170.359 290.499 167.906C290.499 165.438 290.132 163.352 289.397 161.648C288.679 159.945 287.655 158.656 286.327 157.781C284.999 156.906 283.437 156.469 281.64 156.469C279.858 156.469 278.304 156.906 276.976 157.781C275.647 158.656 274.608 159.945 273.858 161.648C273.124 163.352 272.757 165.438 272.757 167.906C272.757 170.359 273.124 172.438 273.858 174.141C274.608 175.828 275.647 177.109 276.976 177.984C278.304 178.859 279.858 179.297 281.64 179.297ZM298.983 156.516V150.422H327.671V156.516H316.983V185.344H309.694V156.516H298.983ZM330.835 185.344V150.422H338.194V164.836H353.194V150.422H360.554V185.344H353.194V170.906H338.194V185.344H330.835ZM365.054 185.344V150.422H388.585V156.516H372.413V164.719H387.366V170.695H372.413V179.25H388.632V185.344H365.054ZM392.897 185.344V150.422H406.655C409.296 150.422 411.546 150.891 413.405 151.828C415.28 152.766 416.71 154.094 417.694 155.812C418.694 157.516 419.194 159.523 419.194 161.836C419.194 164.148 418.694 166.141 417.694 167.812C416.694 169.484 415.241 170.766 413.335 171.656C411.444 172.531 409.155 172.969 406.468 172.969H397.257V167.039H405.272C406.694 167.039 407.866 166.844 408.788 166.453C409.726 166.062 410.421 165.484 410.874 164.719C411.343 163.953 411.577 162.992 411.577 161.836C411.577 160.664 411.343 159.688 410.874 158.906C410.421 158.109 409.726 157.508 408.788 157.102C407.851 156.68 406.671 156.469 405.249 156.469H400.257V185.344H392.897ZM412.28 185.344L403.772 169.453H411.741L420.437 185.344H412.28ZM435.788 185.836C432.976 185.836 430.522 185.406 428.429 184.547C426.351 183.688 424.726 182.406 423.554 180.703C422.397 179 421.788 176.891 421.726 174.375H428.851C428.944 175.531 429.288 176.508 429.882 177.305C430.476 178.086 431.272 178.672 432.272 179.062C433.272 179.453 434.421 179.648 435.718 179.648C436.968 179.648 438.054 179.469 438.976 179.109C439.913 178.75 440.632 178.25 441.132 177.609C441.647 176.953 441.905 176.195 441.905 175.336C441.905 174.555 441.671 173.898 441.202 173.367C440.749 172.836 440.077 172.383 439.187 172.008C438.312 171.633 437.241 171.297 435.976 171L432.155 170.062C429.218 169.359 426.897 168.242 425.194 166.711C423.491 165.164 422.64 163.102 422.64 160.523C422.64 158.414 423.21 156.57 424.351 154.992C425.507 153.398 427.077 152.164 429.062 151.289C431.062 150.398 433.335 149.953 435.882 149.953C438.476 149.953 440.733 150.398 442.655 151.289C444.593 152.18 446.101 153.414 447.179 154.992C448.272 156.57 448.835 158.391 448.866 160.453H441.765C441.64 159.094 441.054 158.031 440.007 157.266C438.976 156.5 437.577 156.117 435.812 156.117C434.624 156.117 433.608 156.289 432.765 156.633C431.937 156.961 431.304 157.422 430.866 158.016C430.429 158.609 430.21 159.289 430.21 160.055C430.21 160.867 430.46 161.555 430.96 162.117C431.46 162.664 432.124 163.117 432.952 163.477C433.796 163.82 434.718 164.109 435.718 164.344L438.835 165.117C440.351 165.461 441.749 165.922 443.03 166.5C444.312 167.062 445.421 167.758 446.358 168.586C447.312 169.414 448.046 170.391 448.562 171.516C449.077 172.625 449.335 173.906 449.335 175.359C449.335 177.5 448.796 179.359 447.718 180.938C446.655 182.5 445.116 183.711 443.101 184.57C441.085 185.414 438.647 185.836 435.788 185.836ZM477.905 185.812C474.812 185.812 472.038 185.109 469.585 183.703C467.132 182.297 465.194 180.258 463.772 177.586C462.351 174.914 461.64 171.688 461.64 167.906C461.64 164.094 462.351 160.852 463.772 158.18C465.21 155.492 467.155 153.453 469.608 152.062C472.077 150.656 474.843 149.953 477.905 149.953C479.937 149.953 481.819 150.242 483.554 150.82C485.288 151.383 486.819 152.211 488.147 153.305C489.491 154.383 490.585 155.711 491.429 157.289C492.272 158.852 492.812 160.641 493.046 162.656H485.593C485.452 161.703 485.171 160.844 484.749 160.078C484.343 159.312 483.804 158.664 483.132 158.133C482.476 157.602 481.718 157.195 480.858 156.914C480.015 156.617 479.085 156.469 478.069 156.469C476.288 156.469 474.718 156.922 473.358 157.828C472.015 158.719 470.968 160.016 470.218 161.719C469.483 163.406 469.116 165.469 469.116 167.906C469.116 170.391 469.491 172.484 470.241 174.188C470.991 175.875 472.038 177.148 473.382 178.008C474.726 178.867 476.28 179.297 478.046 179.297C479.03 179.297 479.944 179.164 480.788 178.898C481.632 178.633 482.382 178.25 483.038 177.75C483.694 177.25 484.241 176.641 484.679 175.922C485.132 175.188 485.437 174.352 485.593 173.414H493.046C492.858 175.023 492.382 176.57 491.616 178.055C490.866 179.539 489.843 180.867 488.546 182.039C487.249 183.195 485.71 184.117 483.929 184.805C482.147 185.477 480.14 185.812 477.905 185.812ZM517.937 185.344L506.288 170.461H504.179V185.344H496.819V150.422H504.179V164.391H506.218L517.28 150.422H526.444L512.827 167.297L527.101 185.344H517.937ZM543.015 185.812C539.921 185.812 537.14 185.109 534.671 183.703C532.202 182.297 530.249 180.258 528.812 177.586C527.374 174.914 526.655 171.688 526.655 167.906C526.655 164.094 527.374 160.852 528.812 158.18C530.249 155.492 532.202 153.453 534.671 152.062C537.14 150.656 539.921 149.953 543.015 149.953C546.108 149.953 548.89 150.656 551.358 152.062C553.827 153.453 555.772 155.492 557.194 158.18C558.632 160.852 559.351 164.094 559.351 167.906C559.351 171.703 558.632 174.938 557.194 177.609C555.772 180.281 553.827 182.32 551.358 183.727C548.89 185.117 546.108 185.812 543.015 185.812ZM543.015 179.297C544.812 179.297 546.374 178.859 547.702 177.984C549.03 177.109 550.054 175.828 550.772 174.141C551.507 172.438 551.874 170.359 551.874 167.906C551.874 165.438 551.507 163.352 550.772 161.648C550.054 159.945 549.03 158.656 547.702 157.781C546.374 156.906 544.812 156.469 543.015 156.469C541.233 156.469 539.679 156.906 538.351 157.781C537.022 158.656 535.983 159.945 535.233 161.648C534.499 163.352 534.132 165.438 534.132 167.906C534.132 170.359 534.499 172.438 535.233 174.141C535.983 175.828 537.022 177.109 538.351 177.984C539.679 178.859 541.233 179.297 543.015 179.297ZM561.343 185.344V179.391L562.351 179.32C563.616 179.211 564.64 178.727 565.421 177.867C566.202 177.008 566.788 175.625 567.179 173.719C567.569 171.797 567.827 169.219 567.952 165.984L568.538 150.422H592.21V185.344H585.038V156.328H575.382L574.819 168.516C574.647 172.422 574.187 175.617 573.437 178.102C572.702 180.57 571.522 182.398 569.897 183.586C568.272 184.758 566.062 185.344 563.265 185.344H561.343ZM617.827 185.344L606.179 170.461H604.069V185.344H596.71V150.422H604.069V164.391H606.108L617.171 150.422H626.335L612.718 167.297L626.991 185.344H617.827ZM642.905 185.812C639.812 185.812 637.03 185.109 634.562 183.703C632.093 182.297 630.14 180.258 628.702 177.586C627.265 174.914 626.546 171.688 626.546 167.906C626.546 164.094 627.265 160.852 628.702 158.18C630.14 155.492 632.093 153.453 634.562 152.062C637.03 150.656 639.812 149.953 642.905 149.953C645.999 149.953 648.78 150.656 651.249 152.062C653.718 153.453 655.663 155.492 657.085 158.18C658.522 160.852 659.241 164.094 659.241 167.906C659.241 171.703 658.522 174.938 657.085 177.609C655.663 180.281 653.718 182.32 651.249 183.727C648.78 185.117 645.999 185.812 642.905 185.812ZM642.905 179.297C644.702 179.297 646.265 178.859 647.593 177.984C648.921 177.109 649.944 175.828 650.663 174.141C651.397 172.438 651.765 170.359 651.765 167.906C651.765 165.438 651.397 163.352 650.663 161.648C649.944 159.945 648.921 158.656 647.593 157.781C646.265 156.906 644.702 156.469 642.905 156.469C641.124 156.469 639.569 156.906 638.241 157.781C636.913 158.656 635.874 159.945 635.124 161.648C634.39 163.352 634.022 165.438 634.022 167.906C634.022 170.359 634.39 172.438 635.124 174.141C635.874 175.828 636.913 177.109 638.241 177.984C639.569 178.859 641.124 179.297 642.905 179.297ZM663.132 185.344V150.422H677.101C679.663 150.422 681.804 150.805 683.522 151.57C685.241 152.336 686.53 153.391 687.39 154.734C688.265 156.078 688.702 157.625 688.702 159.375C688.702 160.734 688.421 161.93 687.858 162.961C687.312 163.992 686.562 164.836 685.608 165.492C684.671 166.148 683.593 166.609 682.374 166.875V167.227C683.702 167.289 684.952 167.664 686.124 168.352C687.296 169.039 688.241 170.008 688.96 171.258C689.694 172.492 690.062 173.969 690.062 175.688C690.062 177.531 689.601 179.188 688.679 180.656C687.772 182.109 686.429 183.258 684.647 184.102C682.866 184.93 680.663 185.344 678.038 185.344H663.132ZM670.491 179.32H676.538C678.585 179.32 680.077 178.922 681.015 178.125C681.968 177.328 682.444 176.273 682.444 174.961C682.444 173.992 682.21 173.141 681.741 172.406C681.288 171.656 680.632 171.07 679.772 170.648C678.913 170.227 677.89 170.016 676.702 170.016H670.491V179.32ZM670.491 165.047H675.976C676.991 165.047 677.89 164.867 678.671 164.508C679.468 164.148 680.093 163.641 680.546 162.984C680.999 162.312 681.226 161.516 681.226 160.594C681.226 159.344 680.78 158.336 679.89 157.57C679.015 156.789 677.757 156.398 676.116 156.398H670.491V165.047ZM708.999 185.812C705.905 185.812 703.124 185.109 700.655 183.703C698.187 182.297 696.233 180.258 694.796 177.586C693.358 174.914 692.64 171.688 692.64 167.906C692.64 164.094 693.358 160.852 694.796 158.18C696.233 155.492 698.187 153.453 700.655 152.062C703.124 150.656 705.905 149.953 708.999 149.953C712.093 149.953 714.874 150.656 717.343 152.062C719.812 153.453 721.757 155.492 723.179 158.18C724.616 160.852 725.335 164.094 725.335 167.906C725.335 171.703 724.616 174.938 723.179 177.609C721.757 180.281 719.812 182.32 717.343 183.727C714.874 185.117 712.093 185.812 708.999 185.812ZM708.999 179.297C710.796 179.297 712.358 178.859 713.687 177.984C715.015 177.109 716.038 175.828 716.757 174.141C717.491 172.438 717.858 170.359 717.858 167.906C717.858 165.438 717.491 163.352 716.757 161.648C716.038 159.945 715.015 158.656 713.687 157.781C712.358 156.906 710.796 156.469 708.999 156.469C707.218 156.469 705.663 156.906 704.335 157.781C703.007 158.656 701.968 159.945 701.218 161.648C700.483 163.352 700.116 165.438 700.116 167.906C700.116 170.359 700.483 172.438 701.218 174.141C701.968 175.828 703.007 177.109 704.335 177.984C705.663 178.859 707.218 179.297 708.999 179.297Z" fill="white"></path><path d="M121.774 504.113L146.227 484.553C184.01 454.329 236.226 449.687 278.749 472.773C303.652 486.293 332.53 490.587 360.29 484.897L396.471 477.48C415.943 473.489 435.864 472.136 455.697 473.459L462.986 473.945C509.335 477.036 555.713 468.361 597.81 448.724L610.593 442.761C631.269 433.117 650.891 421.357 669.144 407.67L746.126 349.946" stroke="#4CB944" stroke-width="5"></path><defs><linearGradient id="paint0_linear_194_224" x1="400" y1="0" x2="400" y2="1020.92" gradientUnits="userSpaceOnUse"><stop offset="0.75" stop-color="white"></stop><stop offset="1" stop-color="#3AAF61"></stop></linearGradient></defs></svg> 